<mxfile host="app.diagrams.net" modified="2021-12-30T04:28:06.094Z" agent="5.0 (Windows NT 10.0; Win64; x64) AppleWebKit/537.36 (KHTML, like Gecko) Chrome/96.0.4664.110 Safari/537.36" etag="DZ1rKwvcfqAKepzwFmqY" version="16.1.0" type="github">
  <diagram id="m6__KW4LDvdU8QPtBLF1" name="Page-1">
    <mxGraphModel dx="1718" dy="450" grid="1" gridSize="10" guides="1" tooltips="1" connect="1" arrows="1" fold="1" page="1" pageScale="1" pageWidth="850" pageHeight="1100" math="0" shadow="0">
      <root>
        <mxCell id="0" />
        <mxCell id="1" parent="0" />
        <mxCell id="G4ISepCTa3lVaH05cGdB-1" value="Chuyên viên mua hàng&lt;br&gt;BVT" style="shape=umlActor;verticalLabelPosition=bottom;verticalAlign=top;html=1;outlineConnect=0;" vertex="1" parent="1">
          <mxGeometry x="-50" y="70" width="30" height="60" as="geometry" />
        </mxCell>
        <mxCell id="G4ISepCTa3lVaH05cGdB-2" value="z" style="whiteSpace=wrap;html=1;aspect=fixed;" vertex="1" parent="1">
          <mxGeometry x="70" y="20" width="770" height="770" as="geometry" />
        </mxCell>
        <mxCell id="G4ISepCTa3lVaH05cGdB-5" value="Quản lý hợp đồng" style="text;html=1;strokeColor=none;fillColor=none;align=center;verticalAlign=middle;whiteSpace=wrap;rounded=0;" vertex="1" parent="1">
          <mxGeometry x="425" y="40" width="60" height="30" as="geometry" />
        </mxCell>
        <mxCell id="G4ISepCTa3lVaH05cGdB-7" value="" style="ellipse;whiteSpace=wrap;html=1;" vertex="1" parent="1">
          <mxGeometry x="390" y="120" width="120" height="80" as="geometry" />
        </mxCell>
        <mxCell id="G4ISepCTa3lVaH05cGdB-8" value="Quản lý hợp đồng" style="text;html=1;strokeColor=none;fillColor=none;align=center;verticalAlign=middle;whiteSpace=wrap;rounded=0;" vertex="1" parent="1">
          <mxGeometry x="420" y="145" width="60" height="30" as="geometry" />
        </mxCell>
        <mxCell id="G4ISepCTa3lVaH05cGdB-9" value="" style="ellipse;whiteSpace=wrap;html=1;" vertex="1" parent="1">
          <mxGeometry x="590" y="80" width="120" height="80" as="geometry" />
        </mxCell>
        <mxCell id="G4ISepCTa3lVaH05cGdB-10" value="Xuất báo cáo" style="text;html=1;strokeColor=none;fillColor=none;align=center;verticalAlign=middle;whiteSpace=wrap;rounded=0;" vertex="1" parent="1">
          <mxGeometry x="620" y="105" width="60" height="30" as="geometry" />
        </mxCell>
        <mxCell id="G4ISepCTa3lVaH05cGdB-14" value="" style="endArrow=classic;html=1;rounded=0;exitX=0;exitY=0.5;exitDx=0;exitDy=0;" edge="1" parent="1" source="G4ISepCTa3lVaH05cGdB-9" target="G4ISepCTa3lVaH05cGdB-7">
          <mxGeometry width="50" height="50" relative="1" as="geometry">
            <mxPoint x="400" y="250" as="sourcePoint" />
            <mxPoint x="450" y="200" as="targetPoint" />
          </mxGeometry>
        </mxCell>
        <mxCell id="G4ISepCTa3lVaH05cGdB-15" value="" style="ellipse;whiteSpace=wrap;html=1;" vertex="1" parent="1">
          <mxGeometry x="550" y="230" width="120" height="80" as="geometry" />
        </mxCell>
        <mxCell id="G4ISepCTa3lVaH05cGdB-16" value="Tìm kiếm" style="text;html=1;strokeColor=none;fillColor=none;align=center;verticalAlign=middle;whiteSpace=wrap;rounded=0;" vertex="1" parent="1">
          <mxGeometry x="580" y="255" width="60" height="30" as="geometry" />
        </mxCell>
        <mxCell id="G4ISepCTa3lVaH05cGdB-17" value="return" style="html=1;verticalAlign=bottom;endArrow=open;dashed=1;endSize=8;rounded=0;entryX=0.5;entryY=1;entryDx=0;entryDy=0;exitX=0.5;exitY=0;exitDx=0;exitDy=0;" edge="1" parent="1" source="G4ISepCTa3lVaH05cGdB-18" target="G4ISepCTa3lVaH05cGdB-15">
          <mxGeometry relative="1" as="geometry">
            <mxPoint x="460" y="230" as="sourcePoint" />
            <mxPoint x="380" y="230" as="targetPoint" />
            <Array as="points">
              <mxPoint x="680" y="400" />
            </Array>
          </mxGeometry>
        </mxCell>
        <mxCell id="G4ISepCTa3lVaH05cGdB-18" value="" style="ellipse;whiteSpace=wrap;html=1;" vertex="1" parent="1">
          <mxGeometry x="620" y="400" width="120" height="80" as="geometry" />
        </mxCell>
        <mxCell id="G4ISepCTa3lVaH05cGdB-19" value="Cơ bản" style="text;html=1;strokeColor=none;fillColor=none;align=center;verticalAlign=middle;whiteSpace=wrap;rounded=0;" vertex="1" parent="1">
          <mxGeometry x="650" y="425" width="60" height="30" as="geometry" />
        </mxCell>
        <mxCell id="G4ISepCTa3lVaH05cGdB-20" value="" style="ellipse;whiteSpace=wrap;html=1;" vertex="1" parent="1">
          <mxGeometry x="480" y="400" width="120" height="80" as="geometry" />
        </mxCell>
        <mxCell id="G4ISepCTa3lVaH05cGdB-21" value="Nâng cao" style="text;html=1;strokeColor=none;fillColor=none;align=center;verticalAlign=middle;whiteSpace=wrap;rounded=0;" vertex="1" parent="1">
          <mxGeometry x="510" y="425" width="60" height="30" as="geometry" />
        </mxCell>
        <mxCell id="G4ISepCTa3lVaH05cGdB-23" value="return" style="html=1;verticalAlign=bottom;endArrow=open;dashed=1;endSize=8;rounded=0;exitX=0.5;exitY=0;exitDx=0;exitDy=0;" edge="1" parent="1" source="G4ISepCTa3lVaH05cGdB-20">
          <mxGeometry relative="1" as="geometry">
            <mxPoint x="460" y="430" as="sourcePoint" />
            <mxPoint x="610" y="310" as="targetPoint" />
          </mxGeometry>
        </mxCell>
        <mxCell id="G4ISepCTa3lVaH05cGdB-24" value="" style="endArrow=classic;html=1;rounded=0;exitX=0.5;exitY=0;exitDx=0;exitDy=0;entryX=0.917;entryY=0.813;entryDx=0;entryDy=0;entryPerimeter=0;" edge="1" parent="1" source="G4ISepCTa3lVaH05cGdB-15" target="G4ISepCTa3lVaH05cGdB-7">
          <mxGeometry width="50" height="50" relative="1" as="geometry">
            <mxPoint x="400" y="260" as="sourcePoint" />
            <mxPoint x="450" y="210" as="targetPoint" />
          </mxGeometry>
        </mxCell>
        <mxCell id="G4ISepCTa3lVaH05cGdB-25" value="" style="ellipse;whiteSpace=wrap;html=1;" vertex="1" parent="1">
          <mxGeometry x="340" y="250" width="120" height="80" as="geometry" />
        </mxCell>
        <mxCell id="G4ISepCTa3lVaH05cGdB-26" value="Thông tin hợp đồng" style="text;html=1;strokeColor=none;fillColor=none;align=center;verticalAlign=middle;whiteSpace=wrap;rounded=0;" vertex="1" parent="1">
          <mxGeometry x="370" y="275" width="60" height="30" as="geometry" />
        </mxCell>
        <mxCell id="G4ISepCTa3lVaH05cGdB-28" value="" style="endArrow=classic;html=1;rounded=0;entryX=0.558;entryY=1;entryDx=0;entryDy=0;entryPerimeter=0;" edge="1" parent="1" source="G4ISepCTa3lVaH05cGdB-25" target="G4ISepCTa3lVaH05cGdB-7">
          <mxGeometry width="50" height="50" relative="1" as="geometry">
            <mxPoint x="400" y="310" as="sourcePoint" />
            <mxPoint x="450" y="260" as="targetPoint" />
          </mxGeometry>
        </mxCell>
        <mxCell id="G4ISepCTa3lVaH05cGdB-29" value="" style="ellipse;whiteSpace=wrap;html=1;" vertex="1" parent="1">
          <mxGeometry x="90" y="375" width="120" height="80" as="geometry" />
        </mxCell>
        <mxCell id="G4ISepCTa3lVaH05cGdB-31" value="" style="ellipse;whiteSpace=wrap;html=1;" vertex="1" parent="1">
          <mxGeometry x="240" y="380" width="120" height="80" as="geometry" />
        </mxCell>
        <mxCell id="G4ISepCTa3lVaH05cGdB-32" value="" style="ellipse;whiteSpace=wrap;html=1;" vertex="1" parent="1">
          <mxGeometry x="100" y="275" width="120" height="80" as="geometry" />
        </mxCell>
        <mxCell id="G4ISepCTa3lVaH05cGdB-33" value="Thêm thông tin" style="text;html=1;strokeColor=none;fillColor=none;align=center;verticalAlign=middle;whiteSpace=wrap;rounded=0;" vertex="1" parent="1">
          <mxGeometry x="130" y="300" width="60" height="30" as="geometry" />
        </mxCell>
        <mxCell id="G4ISepCTa3lVaH05cGdB-34" value="Sửa thông tin" style="text;html=1;strokeColor=none;fillColor=none;align=center;verticalAlign=middle;whiteSpace=wrap;rounded=0;" vertex="1" parent="1">
          <mxGeometry x="120" y="395" width="60" height="30" as="geometry" />
        </mxCell>
        <mxCell id="G4ISepCTa3lVaH05cGdB-35" value="Xóa thông tin" style="text;html=1;strokeColor=none;fillColor=none;align=center;verticalAlign=middle;whiteSpace=wrap;rounded=0;" vertex="1" parent="1">
          <mxGeometry x="270" y="405" width="60" height="30" as="geometry" />
        </mxCell>
        <mxCell id="G4ISepCTa3lVaH05cGdB-36" value="" style="endArrow=classic;html=1;rounded=0;exitX=0.975;exitY=0.363;exitDx=0;exitDy=0;exitPerimeter=0;entryX=0;entryY=0.5;entryDx=0;entryDy=0;" edge="1" parent="1" source="G4ISepCTa3lVaH05cGdB-32" target="G4ISepCTa3lVaH05cGdB-25">
          <mxGeometry width="50" height="50" relative="1" as="geometry">
            <mxPoint x="400" y="310" as="sourcePoint" />
            <mxPoint x="450" y="260" as="targetPoint" />
          </mxGeometry>
        </mxCell>
        <mxCell id="G4ISepCTa3lVaH05cGdB-37" value="" style="endArrow=classic;html=1;rounded=0;exitX=1;exitY=0;exitDx=0;exitDy=0;" edge="1" parent="1" source="G4ISepCTa3lVaH05cGdB-29">
          <mxGeometry width="50" height="50" relative="1" as="geometry">
            <mxPoint x="400" y="310" as="sourcePoint" />
            <mxPoint x="350" y="310" as="targetPoint" />
          </mxGeometry>
        </mxCell>
        <mxCell id="G4ISepCTa3lVaH05cGdB-38" value="" style="endArrow=classic;html=1;rounded=0;exitX=0.5;exitY=0;exitDx=0;exitDy=0;entryX=0;entryY=1;entryDx=0;entryDy=0;" edge="1" parent="1" source="G4ISepCTa3lVaH05cGdB-31" target="G4ISepCTa3lVaH05cGdB-25">
          <mxGeometry width="50" height="50" relative="1" as="geometry">
            <mxPoint x="400" y="310" as="sourcePoint" />
            <mxPoint x="370" y="320" as="targetPoint" />
          </mxGeometry>
        </mxCell>
        <mxCell id="G4ISepCTa3lVaH05cGdB-39" value="" style="ellipse;whiteSpace=wrap;html=1;" vertex="1" parent="1">
          <mxGeometry x="100" y="160" width="120" height="80" as="geometry" />
        </mxCell>
        <mxCell id="G4ISepCTa3lVaH05cGdB-40" value="Xem thông tin" style="text;html=1;strokeColor=none;fillColor=none;align=center;verticalAlign=middle;whiteSpace=wrap;rounded=0;" vertex="1" parent="1">
          <mxGeometry x="130" y="185" width="60" height="30" as="geometry" />
        </mxCell>
        <mxCell id="G4ISepCTa3lVaH05cGdB-41" value="" style="endArrow=classic;html=1;rounded=0;exitX=1;exitY=0.5;exitDx=0;exitDy=0;entryX=0;entryY=0;entryDx=0;entryDy=0;" edge="1" parent="1" source="G4ISepCTa3lVaH05cGdB-39" target="G4ISepCTa3lVaH05cGdB-25">
          <mxGeometry width="50" height="50" relative="1" as="geometry">
            <mxPoint x="400" y="310" as="sourcePoint" />
            <mxPoint x="450" y="260" as="targetPoint" />
          </mxGeometry>
        </mxCell>
        <mxCell id="G4ISepCTa3lVaH05cGdB-42" value="" style="endArrow=none;html=1;rounded=0;entryX=0;entryY=0.5;entryDx=0;entryDy=0;" edge="1" parent="1" target="G4ISepCTa3lVaH05cGdB-7">
          <mxGeometry width="50" height="50" relative="1" as="geometry">
            <mxPoint x="-10" y="110" as="sourcePoint" />
            <mxPoint x="380" y="150" as="targetPoint" />
          </mxGeometry>
        </mxCell>
      </root>
    </mxGraphModel>
  </diagram>
</mxfile>
